<?xml version="1.0" encoding="iso-8859-1"?>
<!-- Uploaded to: SVG Repo, www.svgrepo.com, Generator: SVG Repo Mixer Tools -->
<!DOCTYPE svg PUBLIC "-//W3C//DTD SVG 1.1//EN" "http://www.w3.org/Graphics/SVG/1.1/DTD/svg11.dtd">
<svg version="1.1" id="Capa_1" xmlns="http://www.w3.org/2000/svg" xmlns:xlink="http://www.w3.org/1999/xlink" 
	 viewBox="0 0 194.678 194.678" xml:space="preserve">
<g>
	<g>
		<rect x="131.535" y="46.71" style="fill-rule:evenodd;clip-rule:evenodd;fill:#C79369;" width="10.319" height="16.417"/>
		<path style="fill-rule:evenodd;clip-rule:evenodd;fill:#D9ECED;" d="M59.313,14.882c24.467-4.861,50.477,21.265,59.715,59.055
			C108.345,86.435,93.49,95.591,76.039,99.058c-17.452,3.468-34.679,0.687-49.328-6.778C20.798,53.829,34.845,19.743,59.313,14.882z
			"/>
		<path style="fill-rule:evenodd;clip-rule:evenodd;fill:#080808;" d="M126.089,66.091c-4.188,12.807-13.251,30.371-24.757,42.571
			l3.412,3.084c12.237-9.936,25.822-27.867,30.188-37.339C140.147,63.093,130.314,53.172,126.089,66.091z"/>
		<path style="fill-rule:evenodd;clip-rule:evenodd;fill:#C79369;" d="M80.479,75.872c5.564,10.958,16.183,25.521,28.254,34.909
			l-2.644,3.255C93.674,106.79,78.927,92.527,73.67,84.601C67.391,75.133,74.868,64.819,80.479,75.872z"/>
		<rect x="64.569" y="59.731" style="fill-rule:evenodd;clip-rule:evenodd;fill:#C79369;" width="11.633" height="16.416"/>
		<path style="fill-rule:evenodd;clip-rule:evenodd;fill:#E7B791;" d="M66.492,106.171l-3.99-21.567L64.57,69.42
			c3.808,0.627,7.687,0.606,11.633,0c2.696,1.381,5.353,8.459,4.609,14.371l-2.358,22.378L66.492,106.171z"/>
		<path style="fill-rule:evenodd;clip-rule:evenodd;fill:#F5F0F0;" d="M71.72,103.708c24.945,0,45.366,30.695,47.062,69.56
			c-12.914,10.177-29.269,16.262-47.062,16.262s-34.147-6.085-47.06-16.262C26.355,134.403,46.775,103.708,71.72,103.708z"/>
		<path style="fill-rule:evenodd;clip-rule:evenodd;fill:#F5F0F0;" d="M62.502,84.604c1.432,0.025,11.945-9.162,18.041-6.873
			c0.385,1.98,0.517,4.085,0.268,6.061l-2.334,22.153l-0.024,0.226H66.492L62.502,84.604z"/>
		<path style="fill-rule:evenodd;clip-rule:evenodd;fill:#E7B791;" d="M74.982,76.605c5.563,10.957,16.182,25.521,28.254,34.909
			l-2.644,3.255c-12.416-7.245-27.162-21.508-32.42-29.434C61.893,75.866,69.37,65.552,74.982,76.605z"/>
		<path style="fill-rule:evenodd;clip-rule:evenodd;fill:#E7B791;" d="M104.692,109.432c1.27,0.867,1.229,1.735,0.34,2.362
			c2.03,1.035,2.686,3.356,2.012,4.344c-1.312,1.921-4.49,2.034-7.102,0.252c-2.61-1.781-3.663-4.784-2.352-6.705
			C98.902,107.763,102.082,107.65,104.692,109.432z"/>
		<path style="fill-rule:evenodd;clip-rule:evenodd;fill:#F5F0F0;" d="M75.622,194.678c4.62,0,8.388-1.893,8.388-4.212
			c0-2.32-3.768-4.213-8.388-4.213c-4.619,0-8.387,1.893-8.387,4.213C67.235,192.785,71.002,194.678,75.622,194.678z"/>
		<rect x="131.814" y="55.701" style="fill-rule:evenodd;clip-rule:evenodd;fill:#F5F0F0;" width="10.696" height="5.655"/>
		<g>
			<path style="fill-rule:evenodd;clip-rule:evenodd;fill:#323232;" d="M128.217,189.278l-2.566-55.118l-0.019-12.87L125.62,117
				h14.801c-1.082,24.093-2.165,48.186-3.247,72.278C134.188,189.278,131.202,189.278,128.217,189.278z"/>
			<polygon style="fill-rule:evenodd;clip-rule:evenodd;fill:#323232;" points="125.62,117 125.826,117 125.632,121.291 
				125.632,121.29 			"/>
		</g>
		<polygon style="fill-rule:evenodd;clip-rule:evenodd;fill:#1A1A1A;" points="121.967,116.276 146.757,116.276 147.082,121.29 
			121.984,121.29 		"/>
		<polygon style="fill-rule:evenodd;clip-rule:evenodd;fill:#323232;" points="146.977,119.622 142.548,57.87 134.471,59.656 
			122.676,90.369 121.956,119.507 		"/>
		<path style="fill-rule:evenodd;clip-rule:evenodd;fill:#F5F0F0;" d="M132.881,56.893c-1.256,19.334-0.809,28.651-9.456,35.447
			l-0.024-8.282l7.52-20.958l0.894-7.399L132.881,56.893z"/>
		<path style="fill-rule:evenodd;clip-rule:evenodd;fill:#323232;" d="M132.633,55.701l0.068,11.329l-0.566,1.948l-5.705,18.319
			l-4.351,9.802l1.01-13.642l7.83-20.357l0.601-6.408c0.091-0.974,0.014-1.064,0.014-1.064L132.633,55.701z"/>
		<path style="fill-rule:evenodd;clip-rule:evenodd;fill:#1A1A1A;" d="M130.188,65.776c-4.188,12.808-13.25,30.372-24.756,42.571
			l3.411,3.084c12.237-9.936,25.822-27.867,30.188-37.339C144.247,62.778,134.414,52.857,130.188,65.776z"/>
		<path style="fill-rule:evenodd;clip-rule:evenodd;fill:#E7B791;" d="M103.505,106.336c-1.23,1.153-1.041,2.087,0.027,2.617
			c-2.025,1.462-2.347,4.088-1.45,5.045c1.744,1.861,5.208,1.45,7.737-0.92c2.53-2.369,3.167-5.799,1.423-7.66
			C109.499,103.556,106.035,103.967,103.505,106.336z"/>
		<path style="fill-rule:evenodd;clip-rule:evenodd;fill:#1A1A1A;" d="M127.977,194.678c5.065,0,9.196-2.074,9.196-4.619
			c0-2.544-4.131-4.619-9.196-4.619c-5.065,0-9.197,2.075-9.197,4.619C118.78,192.604,122.912,194.678,127.977,194.678z"/>
		<g>
			
				<ellipse transform="matrix(0.4058 -0.914 0.914 0.4058 63.9225 174.1767)" style="fill-rule:evenodd;clip-rule:evenodd;fill:#E7B791;" cx="165.917" cy="37.927" rx="5.761" ry="3.687"/>
			
				<ellipse transform="matrix(-0.0375 -0.9993 0.9993 -0.0375 92.4203 139.7655)" style="fill-rule:evenodd;clip-rule:evenodd;fill:#E7B791;" cx="113.517" cy="25.376" rx="5.761" ry="3.687"/>
			
				<ellipse transform="matrix(0.189 -0.982 0.982 0.189 79.1957 163.8767)" style="fill-rule:evenodd;clip-rule:evenodd;fill:#E7B791;" cx="138.811" cy="33.992" rx="20.727" ry="26.889"/>
			
				<ellipse transform="matrix(0.189 -0.982 0.982 0.189 76.4443 153.5189)" style="fill-rule:evenodd;clip-rule:evenodd;fill:#323232;" cx="131.162" cy="30.48" rx="2.615" ry="1.495"/>
			
				<ellipse transform="matrix(0.189 -0.982 0.982 0.189 86.4311 171.7897)" style="fill-rule:evenodd;clip-rule:evenodd;fill:#323232;" cx="147.215" cy="33.57" rx="2.615" ry="1.495"/>
			<path style="fill-rule:evenodd;clip-rule:evenodd;fill:#5E3A1D;" d="M162.592,18.972c-12.984-3.059-38.038,13.644-50.383,5.633
				c5.62-15.617,23.913-21.469,37.539-16.417C154.778,10.052,159.206,12.612,162.592,18.972z"/>
			<path style="fill-rule:evenodd;clip-rule:evenodd;fill:#5E3A1D;" d="M153.732,11.56c-4.768,10.599,3.729,24.999,12.185,26.367
				C169.041,29.027,163.126,15.104,153.732,11.56z"/>
			<path style="fill-rule:evenodd;clip-rule:evenodd;fill:#C79369;" d="M146.068,43.235c-3.939,0.004-13.225-1.85-17.428-3.354
				C132.08,46.115,141.429,48.107,146.068,43.235z"/>
			<path style="fill-rule:evenodd;clip-rule:evenodd;fill:#5E3A1D;" d="M162.502,19.442c-17.631-7.753-46.984,10.972-50.17-11.64
				c8.487,5.206,10.152,1.994,19.706-0.955C141.673,3.874,154.97,5.3,162.502,19.442z"/>
			<path style="fill-rule:evenodd;clip-rule:evenodd;fill:#5E3A1D;" d="M163.929,24.466c-14.961-12.13-48.214-1.814-45.32-24.466
				c6.813,7.261,9.267,4.602,19.259,4.279C147.947,3.954,160.396,8.837,163.929,24.466z"/>
		</g>
		<g>
			
				<ellipse transform="matrix(-0.2053 -0.9787 0.9787 -0.2053 44.8152 100.0053)" style="fill-rule:evenodd;clip-rule:evenodd;fill:#5E3A1D;" cx="63.008" cy="31.808" rx="15.362" ry="15.518"/>
			
				<ellipse transform="matrix(-0.2054 -0.9787 0.9787 -0.2054 42.4163 104.6742)" style="fill-rule:evenodd;clip-rule:evenodd;fill:#F5F0F0;" cx="63.703" cy="35.117" rx="11.981" ry="17.539"/>
			
				<ellipse transform="matrix(-0.2054 -0.9787 0.9787 -0.2054 41.6345 106.1945)" style="fill-rule:evenodd;clip-rule:evenodd;fill:#5E3A1D;" cx="63.929" cy="36.195" rx="10.88" ry="19.508"/>
			
				<ellipse transform="matrix(-0.2053 -0.9787 0.9787 -0.2053 33.0311 122.4824)" style="fill-rule:evenodd;clip-rule:evenodd;fill:#E7B791;" cx="66.241" cy="47.831" rx="19.555" ry="22.062"/>
			<g>
				
					<ellipse transform="matrix(-0.2054 -0.9787 0.9787 -0.2054 44.0847 127.1889)" style="fill-rule:evenodd;clip-rule:evenodd;fill:#323232;" cx="73.673" cy="45.699" rx="2.467" ry="1.41"/>
				
					<ellipse transform="matrix(-0.2054 -0.9787 0.9787 -0.2054 22.7881 116.2327)" style="fill-rule:evenodd;clip-rule:evenodd;fill:#323232;" cx="58.578" cy="48.866" rx="2.467" ry="1.41"/>
			</g>
			<path style="fill-rule:evenodd;clip-rule:evenodd;fill:#C79369;" d="M76.44,53.229c-3.632,1.527-12.911,3.407-17.369,3.644
				C64.653,61.293,74.045,59.517,76.44,53.229z"/>
			
				<ellipse transform="matrix(-0.421 -0.9071 0.9071 -0.421 15.3867 114.6916)" style="fill-rule:evenodd;clip-rule:evenodd;fill:#E7B791;" cx="44.3" cy="52.435" rx="5.761" ry="3.687"/>
			
				<ellipse transform="matrix(0.0208 -0.9998 0.9998 0.0208 42.7054 130.6582)" style="fill-rule:evenodd;clip-rule:evenodd;fill:#E7B791;" cx="88.058" cy="43.527" rx="5.761" ry="3.687"/>
			<g>
				<path style="fill-rule:evenodd;clip-rule:evenodd;fill:#5E3A1D;" d="M66.898,26.857c11.75,4.016,18.951,19.031,24.862,15.793
					C88.484,30.148,75.27,23.2,66.898,26.857z"/>
				<path style="fill-rule:evenodd;clip-rule:evenodd;fill:#5E3A1D;" d="M78.602,27.264C61.219,29.935,55.479,55.51,40.407,52.625
					C37.811,33.535,57.515,20.765,78.602,27.264z"/>
			</g>
		</g>
	</g>
</g>
</svg>